<?xml version="1.0" encoding="utf-8"?>
<!-- Generator: Adobe Illustrator 16.0.0, SVG Export Plug-In . SVG Version: 6.00 Build 0)  -->
<!DOCTYPE svg PUBLIC "-//W3C//DTD SVG 1.1//EN" "http://www.w3.org/Graphics/SVG/1.1/DTD/svg11.dtd">
<svg version="1.1" id="Layer_1" xmlns="http://www.w3.org/2000/svg" xmlns:xlink="http://www.w3.org/1999/xlink" x="0px" y="0px"
	 width="11.667px" height="11.667px" viewBox="11.167 51.834 11.667 11.667" enable-background="new 11.167 51.834 11.667 11.667"
	 xml:space="preserve">
<path fill="#FFFFFF" d="M17,51.834c-3.22,0-5.833,2.613-5.833,5.833c0,3.221,2.613,5.834,5.833,5.834
	c3.22,0,5.833-2.613,5.833-5.834C22.833,54.447,20.22,51.834,17,51.834z M17,62.333c-2.573,0-4.667-2.094-4.667-4.666
	C12.333,55.094,14.427,53,17,53c2.572,0,4.666,2.094,4.666,4.667C21.666,60.239,19.572,62.333,17,62.333z M19.678,55.089
	l-3.845,3.844l-1.511-1.505L13.5,58.251l2.333,2.332l4.667-4.666L19.678,55.089z"/>
</svg>
