<?xml version="1.0" encoding="utf-8"?>
<!-- Generator: Adobe Illustrator 16.0.0, SVG Export Plug-In . SVG Version: 6.00 Build 0)  -->
<!DOCTYPE svg PUBLIC "-//W3C//DTD SVG 1.1//EN" "http://www.w3.org/Graphics/SVG/1.1/DTD/svg11.dtd">
<svg version="1.1" id="Layer_1" xmlns="http://www.w3.org/2000/svg" xmlns:xlink="http://www.w3.org/1999/xlink" x="0px" y="0px"
	 width="10px" height="9.988px" viewBox="1 1.006 10 9.988" enable-background="new 1 1.006 10 9.988" xml:space="preserve">
<path fill="#FFFFFF" d="M4.2,8.5L6,6.7l1.8,1.8l0.7-0.7L6.7,6l1.8-1.8L7.8,3.5L6,5.3L4.2,3.5L3.5,4.2L5.3,6L3.5,7.8L4.2,8.5z M6,11
	c-0.692,0-1.342-0.131-1.95-0.395c-0.608-0.262-1.137-0.618-1.587-1.068C2.013,9.088,1.656,8.559,1.394,7.95S1,6.691,1,6
	s0.131-1.341,0.394-1.95c0.263-0.608,0.619-1.138,1.068-1.587S3.441,1.657,4.05,1.394C4.659,1.131,5.309,1,6,1
	c0.691,0,1.341,0.131,1.95,0.394c0.608,0.263,1.138,0.619,1.587,1.068s0.807,0.979,1.069,1.587C10.869,4.659,11.001,5.309,11,6
	s-0.133,1.342-0.395,1.95S9.988,9.088,9.537,9.537c-0.45,0.45-0.979,0.807-1.587,1.069C7.342,10.869,6.692,11,6,11 M6,10
	c1.117,0,2.063-0.388,2.838-1.162C9.612,8.063,10,7.117,10,6c0-1.117-0.388-2.063-1.162-2.837C8.063,2.388,7.117,2,6,2
	C4.883,2,3.938,2.388,3.163,3.163S2,4.883,2,6c0,1.117,0.388,2.063,1.163,2.838C3.938,9.612,4.883,10,6,10"/>
</svg>
