<?xml version="1.0" encoding="utf-8"?>
<!-- Generator: Adobe Illustrator 16.0.0, SVG Export Plug-In . SVG Version: 6.00 Build 0)  -->
<!DOCTYPE svg PUBLIC "-//W3C//DTD SVG 1.1//EN" "http://www.w3.org/Graphics/SVG/1.1/DTD/svg11.dtd">
<svg version="1.1" id="Layer_1" xmlns="http://www.w3.org/2000/svg" xmlns:xlink="http://www.w3.org/1999/xlink" x="0px" y="0px"
	 width="12px" height="12px" viewBox="10.688 47.416 12 12" enable-background="new 10.688 47.416 12 12" xml:space="preserve">
<g>
	<path fill="#FFFFFF" d="M17.354,47.416c0.17,0,0.334,0.065,0.457,0.182c0.124,0.117,0.198,0.276,0.209,0.445
		c0.01,0.17-0.046,0.338-0.154,0.468c-0.109,0.13-0.264,0.214-0.434,0.233l-0.078,0.006h-5.332v9.332h9.332V52.75
		c0.001-0.17,0.066-0.334,0.183-0.457c0.116-0.124,0.276-0.198,0.446-0.209c0.169-0.01,0.336,0.046,0.467,0.154
		c0.13,0.109,0.213,0.264,0.233,0.434l0.005,0.078v5.332c0,0.337-0.127,0.661-0.355,0.908c-0.229,0.246-0.543,0.396-0.878,0.422
		l-0.101,0.004h-9.332c-0.337,0-0.661-0.127-0.908-0.355c-0.246-0.229-0.396-0.543-0.422-0.878l-0.004-0.101V48.75
		c0-0.337,0.127-0.661,0.355-0.908c0.229-0.246,0.543-0.396,0.878-0.422l0.101-0.004H17.354z M21.516,47.645
		c0.121-0.119,0.281-0.189,0.451-0.193c0.169-0.006,0.334,0.054,0.461,0.166c0.127,0.111,0.207,0.268,0.223,0.437
		s-0.033,0.337-0.137,0.472l-0.055,0.063l-6.6,6.6c-0.121,0.119-0.281,0.189-0.451,0.193c-0.169,0.006-0.334-0.054-0.461-0.166
		c-0.127-0.111-0.207-0.268-0.223-0.437s0.033-0.337,0.137-0.472l0.055-0.063L21.516,47.645z"/>
</g>
</svg>
