<?xml version="1.0" encoding="utf-8"?>
<!-- Generator: Adobe Illustrator 16.0.0, SVG Export Plug-In . SVG Version: 6.00 Build 0)  -->
<!DOCTYPE svg PUBLIC "-//W3C//DTD SVG 1.1//EN" "http://www.w3.org/Graphics/SVG/1.1/DTD/svg11.dtd">
<svg version="1.1" xmlns="http://www.w3.org/2000/svg" xmlns:xlink="http://www.w3.org/1999/xlink" x="0px" y="0px" width="182px"
	 height="31px" viewBox="0 0 182 31" enable-background="new 0 0 182 31" xml:space="preserve">
<g id="Layer_1" display="none">
</g>
<g id="Layer_2">
	<g>
		<path fill="#3D3C52" d="M13.598,28.204c-0.918,0-1.619-0.254-2.102-0.762c-0.483-0.508-0.725-1.22-0.725-2.139V6.966H4.356
			c-0.75,0-1.33-0.205-1.74-0.616C2.205,5.939,2,5.372,2,4.646c0-0.749,0.205-1.322,0.616-1.721c0.411-0.399,0.99-0.6,1.74-0.6
			h18.447c0.749,0,1.328,0.2,1.739,0.6c0.411,0.398,0.616,0.972,0.616,1.721c0,0.726-0.205,1.293-0.616,1.703
			c-0.411,0.411-0.99,0.616-1.739,0.616h-6.416v18.338c0,0.919-0.235,1.631-0.707,2.139C15.211,27.95,14.516,28.204,13.598,28.204z"
			/>
		<path fill="#3D3C52" d="M32.806,28.276c-1.909,0-3.57-0.376-4.983-1.123c-1.414-0.749-2.506-1.824-3.28-3.227
			c-0.773-1.4-1.16-3.056-1.16-4.965c0-1.425,0.218-2.705,0.653-3.842c0.434-1.135,1.069-2.107,1.903-2.917
			c0.833-0.81,1.83-1.427,2.989-1.849S31.38,9.72,32.806,9.72c1.909,0,3.57,0.374,4.983,1.124c1.414,0.749,2.512,1.813,3.298,3.189
			c0.784,1.378,1.177,3.02,1.177,4.929c0,1.45-0.224,2.743-0.67,3.878c-0.448,1.137-1.082,2.114-1.902,2.935
			c-0.822,0.823-1.818,1.445-2.99,1.868C35.529,28.063,34.231,28.276,32.806,28.276z"/>
		<path fill="#F15D56" d="M36.76,18.96c0,1.189-0.17,2.159-0.51,2.92c-0.34,0.76-0.8,1.34-1.38,1.72c-0.58,0.39-1.27,0.58-2.06,0.58
			c-1.16,0-2.11-0.43-2.83-1.29c-0.73-0.85-1.09-2.16-1.09-3.93c0-1.181,0.17-2.15,0.49-2.91c0.33-0.771,0.79-1.33,1.38-1.69
			c0.59-0.359,1.27-0.55,2.05-0.55c1.18,0,2.13,0.42,2.86,1.26C36.39,15.899,36.76,17.199,36.76,18.96z"/>
		<path fill="#3D3C52" d="M49.006,27.878c-0.943,0-1.667-0.255-2.175-0.761c-0.506-0.508-0.761-1.232-0.761-2.175V5.263
			c0-0.942,0.254-1.667,0.761-2.175c0.508-0.508,1.232-0.762,2.175-0.762h7.067c4.372,0,7.749,1.106,10.129,3.317
			c2.38,2.21,3.57,5.356,3.57,9.44c0,2.054-0.308,3.872-0.923,5.455c-0.617,1.581-1.504,2.916-2.664,4.004
			c-1.16,1.088-2.586,1.915-4.277,2.483c-1.691,0.567-3.637,0.852-5.834,0.852H49.006z M51.687,23.276h4.06
			c1.377,0,2.573-0.171,3.587-0.509c1.016-0.339,1.861-0.845,2.538-1.521c0.676-0.677,1.183-1.528,1.521-2.556
			c0.338-1.026,0.508-2.229,0.508-3.606c0-2.754-0.684-4.802-2.048-6.143c-1.364-1.343-3.401-2.012-6.106-2.012h-4.06V23.276z"/>
		<g>
			<path fill="#3D3C52" d="M90.484,14.033c-0.785-1.377-1.884-2.44-3.298-3.189c-1.414-0.75-3.075-1.124-4.983-1.124
				c-1.425,0-2.718,0.213-3.878,0.635c-1.159,0.422-2.156,1.039-2.99,1.849c-0.833,0.81-1.467,1.782-1.902,2.917
				c-0.435,1.137-0.652,2.417-0.652,3.842c0,1.909,0.386,3.564,1.16,4.965c0.772,1.402,1.866,2.478,3.279,3.227
				c1.414,0.747,3.075,1.123,4.983,1.123c1.426,0,2.725-0.213,3.896-0.634c1.172-0.423,2.167-1.045,2.99-1.868
				c0.821-0.82,1.455-1.798,1.903-2.935c0.446-1.135,0.67-2.428,0.67-3.878C91.662,17.053,91.269,15.411,90.484,14.033z
				 M85.649,21.88c-0.34,0.76-0.8,1.34-1.38,1.72c-0.58,0.39-1.27,0.58-2.07,0.58c-1.16,0-2.1-0.43-2.82-1.29
				c-0.73-0.85-1.09-2.16-1.09-3.93c0-1.181,0.16-2.15,0.49-2.91c0.32-0.771,0.78-1.33,1.38-1.69c0.59-0.359,1.27-0.55,2.04-0.55
				c1.19,0,2.14,0.42,2.87,1.26c0.72,0.83,1.08,2.13,1.08,3.891C86.149,20.149,85.979,21.119,85.649,21.88z"/>
			<path fill="#F15D56" d="M82.2,13.81c-0.77,0-1.45,0.19-2.04,0.55c-0.6,0.36-1.06,0.92-1.38,1.69c-0.33,0.76-0.49,1.729-0.49,2.91
				c0,1.77,0.36,3.08,1.09,3.93c0.72,0.86,1.66,1.29,2.82,1.29c0.8,0,1.49-0.19,2.07-0.58c0.58-0.38,1.04-0.96,1.38-1.72
				c0.33-0.761,0.5-1.73,0.5-2.92c0-1.761-0.36-3.061-1.08-3.891C84.339,14.229,83.39,13.81,82.2,13.81z"/>
		</g>
		<path fill="#3D3C52" d="M98.076,28.204c-0.82,0-1.449-0.23-1.884-0.689s-0.652-1.099-0.652-1.921V4.61
			c0-0.821,0.236-1.462,0.705-1.921C96.718,2.229,97.364,2,98.185,2c0.726,0,1.299,0.14,1.723,0.418
			c0.422,0.277,0.815,0.755,1.177,1.431l8.373,15.294h-1.233l8.372-15.294c0.363-0.676,0.755-1.153,1.178-1.431
			C118.198,2.14,118.758,2,119.459,2c0.821,0,1.456,0.229,1.903,0.689c0.446,0.459,0.67,1.1,0.67,1.921v20.983
			c0,0.822-0.218,1.462-0.652,1.921c-0.434,0.459-1.064,0.689-1.884,0.689c-0.821,0-1.456-0.23-1.903-0.689s-0.67-1.099-0.67-1.921
			V10.917h0.796l-6.739,12.067c-0.291,0.46-0.599,0.805-0.926,1.033c-0.325,0.23-0.754,0.344-1.286,0.344
			c-0.531,0-0.967-0.119-1.305-0.362c-0.338-0.24-0.64-0.58-0.906-1.015l-6.813-12.104h0.869v14.713
			c0,0.822-0.211,1.462-0.636,1.921C99.556,27.974,98.922,28.204,98.076,28.204z"/>
		<path fill="#3D3C52" d="M132.761,28.276c-1.306,0-2.478-0.254-3.517-0.762c-1.038-0.507-1.847-1.196-2.428-2.065
			c-0.579-0.869-0.87-1.849-0.87-2.935c0-1.305,0.339-2.339,1.016-3.099c0.675-0.762,1.775-1.306,3.298-1.633
			c1.522-0.324,3.54-0.488,6.052-0.488h1.921v2.826h-1.885c-1.231,0-2.229,0.067-2.99,0.2c-0.761,0.132-1.305,0.357-1.631,0.671
			s-0.487,0.748-0.487,1.305c0,0.676,0.234,1.231,0.704,1.666c0.473,0.435,1.155,0.651,2.049,0.651c0.7,0,1.322-0.161,1.867-0.488
			c0.544-0.326,0.972-0.772,1.286-1.34s0.471-1.215,0.471-1.938v-4.169c0-1.063-0.242-1.817-0.725-2.265
			c-0.484-0.447-1.305-0.671-2.464-0.671c-0.653,0-1.359,0.079-2.121,0.235c-0.762,0.157-1.6,0.417-2.519,0.779
			c-0.532,0.242-1.002,0.296-1.413,0.163c-0.411-0.132-0.725-0.374-0.941-0.725c-0.218-0.351-0.327-0.736-0.327-1.16
			c0-0.422,0.12-0.833,0.361-1.232c0.243-0.398,0.641-0.694,1.197-0.887c1.135-0.459,2.204-0.773,3.207-0.943
			c1.003-0.168,1.928-0.254,2.772-0.254c1.86,0,3.389,0.271,4.586,0.816c1.194,0.543,2.095,1.376,2.699,2.5
			c0.603,1.124,0.906,2.567,0.906,4.332v8.044c0,0.895-0.219,1.584-0.652,2.065c-0.436,0.484-1.064,0.727-1.886,0.727
			s-1.456-0.242-1.902-0.727c-0.448-0.481-0.671-1.171-0.671-2.065v-1.34l0.254,0.217c-0.145,0.822-0.453,1.529-0.923,2.12
			c-0.472,0.593-1.07,1.051-1.794,1.377C134.536,28.113,133.702,28.276,132.761,28.276z"/>
		<path fill="#3D3C52" d="M155.664,28.276c-1.667,0-3.062-0.278-4.186-0.834s-1.957-1.365-2.501-2.428
			c-0.543-1.064-0.815-2.404-0.815-4.022v-6.814h-1.521c-0.676,0-1.202-0.182-1.577-0.542c-0.374-0.363-0.561-0.857-0.561-1.488
			c0-0.675,0.187-1.189,0.561-1.54c0.375-0.35,0.901-0.525,1.577-0.525h1.521V7.329c0-0.92,0.241-1.613,0.726-2.084
			c0.482-0.472,1.159-0.708,2.029-0.708c0.894,0,1.569,0.236,2.029,0.708c0.459,0.471,0.688,1.164,0.688,2.084v2.753h3.442
			c0.676,0,1.196,0.176,1.56,0.525c0.36,0.351,0.543,0.865,0.543,1.54c0,0.631-0.183,1.125-0.543,1.488
			c-0.363,0.36-0.884,0.542-1.56,0.542h-3.442v6.597c0,1.013,0.235,1.775,0.707,2.283c0.472,0.507,1.226,0.761,2.265,0.761
			c0.362,0,0.7-0.036,1.016-0.108c0.313-0.073,0.603-0.121,0.869-0.146c0.338-0.023,0.616,0.08,0.833,0.308
			c0.218,0.231,0.326,0.731,0.326,1.506c0,0.578-0.096,1.087-0.289,1.522c-0.193,0.435-0.532,0.748-1.016,0.94
			c-0.313,0.121-0.743,0.223-1.286,0.309C156.518,28.234,156.051,28.276,155.664,28.276z"/>
		<path fill="#3D3C52" d="M169.943,28.276c-1.907,0-3.569-0.376-4.983-1.123c-1.413-0.749-2.507-1.824-3.278-3.227
			c-0.773-1.4-1.16-3.056-1.16-4.965c0-1.425,0.218-2.705,0.651-3.842c0.436-1.135,1.07-2.107,1.903-2.917s1.83-1.427,2.99-1.849
			c1.159-0.422,2.452-0.635,3.877-0.635c1.909,0,3.571,0.374,4.984,1.124c1.414,0.749,2.513,1.813,3.298,3.189
			c0.785,1.378,1.178,3.02,1.178,4.929c0,1.45-0.224,2.743-0.671,3.878c-0.447,1.137-1.081,2.114-1.902,2.935
			c-0.822,0.823-1.818,1.445-2.989,1.868C172.668,28.063,171.37,28.276,169.943,28.276z"/>
		<path fill="#F15D56" d="M173.89,18.96c0,1.189-0.16,2.159-0.5,2.92c-0.34,0.76-0.8,1.34-1.38,1.72
			c-0.58,0.39-1.271,0.58-2.07,0.58c-1.16,0-2.1-0.43-2.82-1.29c-0.729-0.85-1.09-2.16-1.09-3.93c0-1.181,0.16-2.15,0.49-2.91
			c0.33-0.771,0.78-1.33,1.38-1.69c0.59-0.359,1.271-0.55,2.04-0.55c1.19,0,2.14,0.42,2.87,1.26
			C173.529,15.899,173.89,17.199,173.89,18.96z"/>
	</g>
</g>
<g id="Layer_1_copy" display="none" opacity="0.3">
</g>
</svg>
